<?xml version="1.0" encoding="UTF-8" standalone="no"?>
<!-- Created with Inkscape (http://www.inkscape.org/) -->

<svg
   xmlns:dc="http://purl.org/dc/elements/1.1/"
   xmlns:cc="http://creativecommons.org/ns#"
   xmlns:rdf="http://www.w3.org/1999/02/22-rdf-syntax-ns#"
   xmlns:svg="http://www.w3.org/2000/svg"
   xmlns="http://www.w3.org/2000/svg"
   xmlns:sodipodi="http://sodipodi.sourceforge.net/DTD/sodipodi-0.dtd"
   xmlns:inkscape="http://www.inkscape.org/namespaces/inkscape"
   version="1.1"
   id="svg2"
   xml:space="preserve"
   width="600"
   height="300"
   viewBox="0 0 600 299.99999"
   sodipodi:docname="Fudul logo.svg"
   inkscape:version="0.92+devel unknown"><metadata
     id="metadata8"><rdf:RDF><cc:Work
         rdf:about=""><dc:format>image/svg+xml</dc:format><dc:type
           rdf:resource="http://purl.org/dc/dcmitype/StillImage" /><dc:title></dc:title></cc:Work></rdf:RDF></metadata><defs
     id="defs6"><clipPath
       clipPathUnits="userSpaceOnUse"
       id="clipPath18"><path
         d="M 0,841.89 H 595.28 V 0 H 0 Z"
         id="path16"
         inkscape:connector-curvature="0" /></clipPath><clipPath
       clipPathUnits="userSpaceOnUse"
       id="clipPath118"><path
         d="m 409.551,484.402 c 0,-12.649 10.241,-22.904 22.872,-22.904 v 0 c 6.274,0 15.14,4.328 19.267,8.43 v 0 c 1.376,1.365 -7.047,1.105 -12.801,1.105 v 0 c -12.63,0 -22.872,10.255 -22.872,22.904 v 0 c 0,0.913 -0.296,1.315 -0.76,1.315 v 0 c -1.709,10e-4 -5.706,-5.433 -5.706,-10.85"
         id="path116"
         inkscape:connector-curvature="0" /></clipPath><linearGradient
       x1="0"
       y1="0"
       x2="1"
       y2="0"
       gradientUnits="userSpaceOnUse"
       gradientTransform="matrix(42.288086,0,0,-42.288086,409.55176,478.375)"
       spreadMethod="pad"
       id="linearGradient128"><stop
         style="stop-opacity:1;stop-color:#f7f7f7"
         offset="0"
         id="stop124" /><stop
         style="stop-opacity:1;stop-color:#ffffff"
         offset="1"
         id="stop126" /></linearGradient><clipPath
       clipPathUnits="userSpaceOnUse"
       id="clipPath138"><path
         d="m 414.45,498.741 c -0.407,-0.282 -1.195,-4.8 -1.195,-4.8 v 0 c 2.055,0.616 2.732,-0.182 2.732,-0.182 v 0 c 0.048,4.179 0.467,4.634 0.322,4.86 v 0 c -0.092,0.143 -0.651,0.268 -1.152,0.268 v 0 c -0.289,0 -0.558,-0.042 -0.707,-0.146"
         id="path136"
         inkscape:connector-curvature="0" /></clipPath><linearGradient
       x1="0"
       y1="0"
       x2="1"
       y2="0"
       gradientUnits="userSpaceOnUse"
       gradientTransform="matrix(2.7712708,-0.1838226,-0.1838226,-2.7712708,413.42285,496.46973)"
       spreadMethod="pad"
       id="linearGradient148"><stop
         style="stop-opacity:1;stop-color:#f7f7f7"
         offset="0"
         id="stop144" /><stop
         style="stop-opacity:1;stop-color:#ffffff"
         offset="1"
         id="stop146" /></linearGradient><clipPath
       clipPathUnits="userSpaceOnUse"
       id="clipPath158"><path
         d="M 0,841.89 H 595.28 V 0 H 0 Z"
         id="path156"
         inkscape:connector-curvature="0" /></clipPath><clipPath
       clipPathUnits="userSpaceOnUse"
       id="clipPath274"><path
         d="m 409.262,225.403 c 0,-12.65 10.24,-22.904 22.871,-22.904 v 0 c 6.274,0 15.139,4.326 19.267,8.429 v 0 c 1.376,1.366 -7.047,1.105 -12.8,1.105 v 0 c -12.631,0 -22.874,10.255 -22.874,22.904 v 0 c 0,0.913 -0.295,1.315 -0.76,1.315 v 0 c -1.709,0 -5.704,-5.434 -5.704,-10.849"
         id="path272"
         inkscape:connector-curvature="0" /></clipPath><linearGradient
       x1="0"
       y1="0"
       x2="1"
       y2="0"
       gradientUnits="userSpaceOnUse"
       gradientTransform="matrix(42.288086,0,0,-42.288086,409.26172,219.37598)"
       spreadMethod="pad"
       id="linearGradient284"><stop
         style="stop-opacity:1;stop-color:#f7f7f7"
         offset="0"
         id="stop280" /><stop
         style="stop-opacity:1;stop-color:#ffffff"
         offset="1"
         id="stop282" /></linearGradient><clipPath
       clipPathUnits="userSpaceOnUse"
       id="clipPath294"><path
         d="m 414.16,239.741 c -0.407,-0.282 -1.195,-4.801 -1.195,-4.801 v 0 c 2.056,0.618 2.732,-0.181 2.732,-0.181 v 0 c 0.048,4.178 0.467,4.635 0.322,4.859 v 0 c -0.092,0.143 -0.652,0.269 -1.153,0.269 v 0 c -0.289,0 -0.557,-0.042 -0.706,-0.146"
         id="path292"
         inkscape:connector-curvature="0" /></clipPath><linearGradient
       x1="0"
       y1="0"
       x2="1"
       y2="0"
       gradientUnits="userSpaceOnUse"
       gradientTransform="matrix(2.7712708,-0.1838226,-0.1838226,-2.7712708,413.13281,237.46875)"
       spreadMethod="pad"
       id="linearGradient304"><stop
         style="stop-opacity:1;stop-color:#f7f7f7"
         offset="0"
         id="stop300" /><stop
         style="stop-opacity:1;stop-color:#ffffff"
         offset="1"
         id="stop302" /></linearGradient><clipPath
       clipPathUnits="userSpaceOnUse"
       id="clipPath314"><path
         d="M 0,841.89 H 595.28 V 0 H 0 Z"
         id="path312"
         inkscape:connector-curvature="0" /></clipPath></defs><sodipodi:namedview
     pagecolor="#fbffff"
     bordercolor="#666666"
     inkscape:document-rotation="0"
     borderopacity="1"
     objecttolerance="10"
     gridtolerance="10"
     guidetolerance="10"
     inkscape:pageopacity="0"
     inkscape:pageshadow="2"
     inkscape:window-width="1366"
     inkscape:window-height="704"
     id="namedview4"
     showgrid="false"
     inkscape:zoom="0.47571535"
     inkscape:cx="144.60164"
     inkscape:cy="309.00832"
     inkscape:window-x="0"
     inkscape:window-y="27"
     inkscape:window-maximized="1"
     inkscape:current-layer="g10" /><g
     id="g10"
     inkscape:groupmode="layer"
     inkscape:label="Fudul logo1"
     transform="matrix(1.3333333,0,0,-1.3333333,0,299.99999)"><g
       id="g12"
       transform="translate(-94.147204,-404.37247)"><g
         id="g14"
         clip-path="url(#clipPath18)"><g
           id="g20"
           transform="translate(508.335,538.1611)"><path
             d="m 0,0 c 0,-18.062 -9.109,-32.711 -20.347,-32.711 -11.24,0 -20.348,14.649 -20.348,32.711 0,18.065 9.108,32.709 20.348,32.709 C -9.109,32.709 0,18.065 0,0"
             style="fill:#5e3711;fill-opacity:1;fill-rule:nonzero;stroke:none"
             id="path22"
             inkscape:connector-curvature="0" /></g><g
           id="g24"
           transform="translate(382.5156,538.1616)"><path
             d="m 0,0 c 0,-18.062 -9.111,-32.711 -20.349,-32.711 -11.241,0 -20.352,14.649 -20.352,32.711 0,18.065 9.111,32.709 20.352,32.709 C -9.111,32.709 0,18.065 0,0"
             style="fill:#5e3711;fill-opacity:1;fill-rule:nonzero;stroke:none"
             id="path26"
             inkscape:connector-curvature="0" /></g><g
           id="g28"
           transform="translate(375.7363,538.1616)"><path
             d="m 0,0 c 0,-12.044 -6.076,-21.813 -13.569,-21.813 -7.495,0 -13.573,9.769 -13.573,21.813 0,12.046 6.078,21.813 13.573,21.813 C -6.076,21.813 0,12.046 0,0"
             style="fill:#e5d3bf;fill-opacity:1;fill-rule:nonzero;stroke:none"
             id="path30"
             inkscape:connector-curvature="0" /></g><g
           id="g32"
           transform="translate(502.043,538.1611)"><path
             d="m 0,0 c 0,-12.044 -6.077,-21.813 -13.572,-21.813 -7.493,0 -13.569,9.769 -13.569,21.813 0,12.046 6.076,21.813 13.569,21.813 C -6.077,21.813 0,12.046 0,0"
             style="fill:#e5d3bf;fill-opacity:1;fill-rule:nonzero;stroke:none"
             id="path34"
             inkscape:connector-curvature="0" /></g><g
           id="g36"
           transform="translate(488.1104,527.8154)"><path
             d="m 0,0 c 0,-33.535 -28.031,-60.722 -62.607,-60.722 -34.577,0 -62.606,27.187 -62.606,60.722 0,33.538 28.029,60.726 62.606,60.726 C -28.031,60.726 0,33.538 0,0"
             style="fill:#5e3711;fill-opacity:1;fill-rule:nonzero;stroke:none"
             id="path38"
             inkscape:connector-curvature="0" /></g><g
           id="g40"
           transform="translate(441.7148,525.0771)"><path
             d="m 0,0 c 0,-19.768 -15.599,-35.795 -34.844,-35.795 -19.238,0 -34.84,16.027 -34.84,35.795 0,19.767 15.602,35.794 34.84,35.794 C -15.599,35.794 0,19.767 0,0"
             style="fill:#e5d3bf;fill-opacity:1;fill-rule:nonzero;stroke:none"
             id="path42"
             inkscape:connector-curvature="0" /></g><g
           id="g44"
           transform="translate(479.6484,525.0771)"><path
             d="m 0,0 c 0,-19.768 -15.998,-35.795 -35.728,-35.795 -19.729,0 -35.724,16.027 -35.724,35.795 0,19.767 15.995,35.794 35.724,35.794 C -15.998,35.794 0,19.767 0,0"
             style="fill:#e5d3bf;fill-opacity:1;fill-rule:nonzero;stroke:none"
             id="path46"
             inkscape:connector-curvature="0" /></g><g
           id="g48"
           transform="translate(467.3105,511.4624)"><path
             d="m 0,0 c 0,-9.662 -7.83,-17.494 -17.494,-17.494 h -2.944 c -9.663,0 -17.493,7.832 -17.493,17.494 v 6.922 c 0,9.661 7.83,17.494 17.493,17.494 h 2.944 C -7.83,24.416 0,16.583 0,6.922 Z m -2.559,25.17 h -14.88 -0.499 -2.552 c -10.009,0 -18.124,-8.114 -18.124,-18.122 v -7.174 c 0,-10.008 8.115,-18.122 18.124,-18.122 h 3.051 c 10.006,0 18.12,8.114 18.12,18.122 v 7.174 c 0,0.751 -0.062,1.487 -0.15,2.213 0.01,-0.058 0.03,-0.115 0.037,-0.175 L 0.73,21.905 c 0,0.479 2.776,0.967 2.776,2.144 0,1.121 -4.229,1.121 -6.065,1.121"
             style="fill:#090706;fill-opacity:1;fill-rule:nonzero;stroke:none"
             id="path50"
             inkscape:connector-curvature="0" /></g><g
           id="g52"
           transform="translate(381.6133,518.3848)"><path
             d="m 0,0 c 0,9.661 7.832,17.494 17.495,17.494 h 2.943 C 30.102,17.494 37.932,9.661 37.932,0 v -6.922 c 0,-9.662 -7.83,-17.495 -17.494,-17.495 H 17.495 C 7.832,-24.417 0,-16.584 0,-6.922 Z m -3.505,17.127 c 0,-1.177 2.776,-1.665 2.776,-2.144 L -0.567,2.164 c 0.006,0.06 0.025,0.117 0.034,0.175 C -0.622,1.613 -0.68,0.876 -0.68,0.125 v -7.173 c 0,-10.009 8.11,-18.122 18.121,-18.122 h 3.052 c 10.007,0 18.122,8.113 18.122,18.122 v 7.173 c 0,10.008 -8.115,18.123 -18.122,18.123 H 17.939 17.441 2.557 c -1.834,0 -6.062,0 -6.062,-1.121"
             style="fill:#090706;fill-opacity:1;fill-rule:nonzero;stroke:none"
             id="path54"
             inkscape:connector-curvature="0" /></g><g
           id="g56"
           transform="translate(410,534.7065)"><path
             d="M 0,0 C 0,0 17.455,3.55 28.921,0"
             style="fill:none;stroke:#090706;stroke-width:1;stroke-linecap:round;stroke-linejoin:miter;stroke-miterlimit:10;stroke-dasharray:none;stroke-opacity:1"
             id="path58"
             inkscape:connector-curvature="0" /></g><g
           id="g60"
           transform="translate(508.96,431.5771)"><path
             d="m 0,0 c 0,-6.306 -6.174,-11.418 -13.789,-11.418 h -140.007 c -7.615,0 -13.788,5.112 -13.788,11.418 l -7.955,81.243 c 0,6.307 6.174,11.419 13.789,11.419 H -5.834 c 7.615,0 13.787,-5.112 13.787,-11.419 z"
             style="fill:#3f3f3f;fill-opacity:1;fill-rule:nonzero;stroke:none"
             id="path62"
             inkscape:connector-curvature="0" /></g><g
           id="g64"
           transform="translate(509.6445,416.7295)"><path
             d="m 0,0 c 0,-2.344 -2.124,-4.242 -4.745,-4.242 h -161.276 c -2.621,0 -4.746,1.898 -4.746,4.242 0,2.342 2.125,4.242 4.746,4.242 H -4.745 C -2.124,4.242 0,2.342 0,0"
             style="fill:#3f3f3f;fill-opacity:1;fill-rule:nonzero;stroke:none"
             id="path66"
             inkscape:connector-curvature="0" /></g><g
           id="g68"
           transform="translate(466.7168,570.9624)"><path
             d="m 0,0 c -0.118,0.009 -0.23,0.03 -0.354,0.03 h -81.757 c -0.096,0 -0.188,-0.017 -0.282,-0.024 11.784,-6.464 25.955,-10.238 41.204,-10.238 15.244,0 29.408,3.772 41.189,10.232"
             style="fill:#090706;fill-opacity:1;fill-rule:nonzero;stroke:none"
             id="path70"
             inkscape:connector-curvature="0" /></g><g
           id="g72"
           transform="translate(467.6396,573.2178)"><path
             d="m 0,0 c 0,-1.692 -1.594,-3.063 -3.563,-3.063 h -77.272 c -1.968,0 -3.562,1.371 -3.562,3.063 l 0.003,40.474 c 0,1.691 1.595,0.797 3.561,0.797 l 77.27,-7.956 C -1.594,33.315 0,31.943 0,30.253 Z"
             style="fill:#090706;fill-opacity:1;fill-rule:nonzero;stroke:none"
             id="path74"
             inkscape:connector-curvature="0" /></g><g
           id="g76"
           transform="translate(497.249,600.2578)"><path
             d="m 0,0 c -0.2,-1.451 -1.536,-2.467 -2.986,-2.27 l -138.199,18.828 c -1.451,0.198 -2.466,1.534 -2.271,2.985 0.199,1.452 1.535,2.468 2.985,2.27 L -2.271,2.985 C -0.819,2.789 0.196,1.452 0,0"
             style="fill:#090706;fill-opacity:1;fill-rule:nonzero;stroke:none"
             id="path78"
             inkscape:connector-curvature="0" /></g><g
           id="g80"
           transform="translate(494.4395,582.8877)"><path
             d="m 0,0 c 0,-0.121 -0.099,-0.221 -0.223,-0.221 -0.12,0 -0.219,0.1 -0.219,0.221 v 15.734 c 0,0.121 0.099,0.22 0.219,0.22 0.124,0 0.223,-0.099 0.223,-0.22 z"
             style="fill:#090706;fill-opacity:1;fill-rule:nonzero;stroke:none"
             id="path82"
             inkscape:connector-curvature="0" /></g><g
           id="g84"
           transform="translate(496.1064,584.0708)"><path
             d="m 0,0 c 0,-0.372 -0.305,-0.673 -0.678,-0.673 h -2.424 c -0.373,0 -0.673,0.301 -0.673,0.673 0,0.372 0.3,0.674 0.673,0.674 h 2.424 C -0.305,0.674 0,0.372 0,0"
             style="fill:#090706;fill-opacity:1;fill-rule:nonzero;stroke:none"
             id="path86"
             inkscape:connector-curvature="0" /></g><g
           id="g88"
           transform="translate(493.0195,573.2705)"><path
             d="m 0,0 c 0,-0.186 -0.153,-0.336 -0.346,-0.336 -0.189,0 -0.342,0.15 -0.342,0.336 v 10.464 c 0,0.186 0.153,0.336 0.342,0.336 C -0.153,10.8 0,10.65 0,10.464 Z"
             style="fill:#090706;fill-opacity:1;fill-rule:nonzero;stroke:none"
             id="path90"
             inkscape:connector-curvature="0" /></g><g
           id="g92"
           transform="translate(493.707,572.6035)"><path
             d="m 0,0 c 0,-0.188 -0.154,-0.343 -0.346,-0.343 -0.187,0 -0.342,0.155 -0.342,0.343 v 10.705 c 0,0.188 0.155,0.343 0.342,0.343 0.192,0 0.346,-0.155 0.346,-0.343 z"
             style="fill:#090706;fill-opacity:1;fill-rule:nonzero;stroke:none"
             id="path94"
             inkscape:connector-curvature="0" /></g><g
           id="g96"
           transform="translate(494.2627,573.0264)"><path
             d="m 0,0 c 0,-0.185 -0.155,-0.334 -0.345,-0.334 -0.188,0 -0.345,0.149 -0.345,0.334 v 10.468 c 0,0.187 0.157,0.337 0.345,0.337 0.19,0 0.345,-0.15 0.345,-0.337 z"
             style="fill:#090706;fill-opacity:1;fill-rule:nonzero;stroke:none"
             id="path98"
             inkscape:connector-curvature="0" /></g><g
           id="g100"
           transform="translate(494.9521,573.373)"><path
             d="m 0,0 c 0,-0.184 -0.166,-0.332 -0.367,-0.332 -0.202,0 -0.368,0.148 -0.368,0.332 v 10.366 c 0,0.183 0.166,0.332 0.368,0.332 0.201,0 0.367,-0.149 0.367,-0.332 z"
             style="fill:#090706;fill-opacity:1;fill-rule:nonzero;stroke:none"
             id="path102"
             inkscape:connector-curvature="0" /></g><g
           id="g104"
           transform="translate(495.6406,572.7471)"><path
             d="m 0,0 c 0,-0.189 -0.155,-0.344 -0.347,-0.344 -0.188,0 -0.341,0.155 -0.341,0.344 v 10.74 c 0,0.19 0.153,0.344 0.341,0.344 C -0.155,11.084 0,10.93 0,10.74 Z"
             style="fill:#090706;fill-opacity:1;fill-rule:nonzero;stroke:none"
             id="path106"
             inkscape:connector-curvature="0" /></g><g
           id="g108"
           transform="translate(496.1064,573.2788)"><path
             d="m 0,0 c 0,-0.189 -0.157,-0.344 -0.346,-0.344 -0.189,0 -0.346,0.155 -0.346,0.344 v 10.739 c 0,0.19 0.157,0.344 0.346,0.344 0.189,0 0.346,-0.154 0.346,-0.344 z"
             style="fill:#090706;fill-opacity:1;fill-rule:nonzero;stroke:none"
             id="path110"
             inkscape:connector-curvature="0" /></g></g></g><g
       id="g112"
       transform="translate(-94.147204,-404.37247)"><g
         id="g114"
         clip-path="url(#clipPath118)"><g
           id="g120"><g
             id="g122"><path
               d="m 409.551,484.402 c 0,-12.649 10.241,-22.904 22.872,-22.904 v 0 c 6.274,0 15.14,4.328 19.267,8.43 v 0 c 1.376,1.365 -7.047,1.105 -12.801,1.105 v 0 c -12.63,0 -22.872,10.255 -22.872,22.904 v 0 c 0,0.913 -0.296,1.315 -0.76,1.315 v 0 c -1.709,10e-4 -5.706,-5.433 -5.706,-10.85"
               style="fill:url(#linearGradient128);stroke:none"
               id="path130"
               inkscape:connector-curvature="0" /></g></g></g></g><g
       id="g132"
       transform="translate(-94.147204,-404.37247)"><g
         id="g134"
         clip-path="url(#clipPath138)"><g
           id="g140"><g
             id="g142"><path
               d="m 414.45,498.741 c -0.407,-0.282 -1.195,-4.8 -1.195,-4.8 v 0 c 2.055,0.616 2.732,-0.182 2.732,-0.182 v 0 c 0.048,4.179 0.467,4.634 0.322,4.86 v 0 c -0.092,0.143 -0.651,0.268 -1.152,0.268 v 0 c -0.289,0 -0.558,-0.042 -0.707,-0.146"
               style="fill:url(#linearGradient148);stroke:none"
               id="path150"
               inkscape:connector-curvature="0" /></g></g></g></g><g
       id="g152"
       transform="translate(-94.147204,-404.37247)"><g
         transform="translate(310.6055,462.6055)"
         id="g160"><path
           inkscape:connector-curvature="0"
           id="path162"
           style="fill:#090706;fill-opacity:1;fill-rule:nonzero;stroke:none"
           d="m 0,0 c -0.707,0.626 -1.724,0.94 -3.048,0.94 h -16.591 v 28.678 c 0,1.631 -0.385,2.844 -1.144,3.642 -0.759,0.797 -1.762,1.196 -2.988,1.196 -1.216,0 -2.19,-0.404 -2.939,-1.208 -0.74,-0.807 -1.116,-2.018 -1.116,-3.63 V -0.727 c 0,-1.723 0.39,-2.966 1.174,-3.736 0.779,-0.773 2.063,-1.158 3.845,-1.158 h 19.759 c 1.344,0 2.365,0.299 3.068,0.902 0.696,0.598 1.042,1.386 1.042,2.35 C 1.062,-1.42 0.711,-0.632 0,0 m -40.64,34.456 c -1.236,0 -2.219,-0.399 -2.949,-1.196 -0.74,-0.798 -1.105,-2.011 -1.105,-3.642 V 10.079 c 0,-3.371 -0.662,-5.882 -1.986,-7.539 -1.319,-1.662 -3.583,-2.488 -6.78,-2.488 -2.316,0 -4.117,0.408 -5.402,1.22 -1.285,0.817 -2.18,1.965 -2.687,3.442 -0.506,1.481 -0.759,3.319 -0.759,5.526 v 19.378 c 0,1.612 -0.37,2.823 -1.119,3.63 -0.74,0.804 -1.748,1.208 -3.018,1.208 -1.212,0 -2.19,-0.404 -2.935,-1.208 -0.744,-0.807 -1.115,-2.018 -1.115,-3.63 V 10.667 c 0,-2.972 0.332,-5.531 0.994,-7.671 0.662,-2.142 1.693,-3.898 3.115,-5.27 1.411,-1.372 3.241,-2.383 5.479,-3.039 2.249,-0.65 4.917,-0.978 8.026,-0.978 2.61,0 4.887,0.304 6.839,0.912 1.946,0.608 3.65,1.576 5.125,2.905 1.708,1.558 2.866,3.367 3.489,5.427 0.613,2.06 0.92,4.633 0.92,7.714 v 18.951 c 0,1.631 -0.385,2.844 -1.143,3.642 -0.76,0.797 -1.763,1.196 -2.989,1.196 M -90.147,2.578 C -90.755,2.06 -91.471,1.657 -92.298,1.367 -93.126,1.083 -93.924,0.902 -94.697,0.831 -95.472,0.759 -96.533,0.722 -97.895,0.722 h -6.201 v 26.746 h 5.403 c 2.497,0 4.628,-0.264 6.395,-0.793 1.761,-0.529 3.245,-1.761 4.448,-3.693 1.207,-1.938 1.81,-4.852 1.81,-8.74 0,-5.517 -1.371,-9.405 -4.107,-11.664 m 6.088,27.631 c -1.616,1.379 -3.417,2.322 -5.402,2.823 -1.981,0.501 -4.366,0.752 -7.14,0.752 h -10.669 c -1.761,0 -3.036,-0.384 -3.83,-1.156 -0.793,-0.769 -1.182,-2.015 -1.182,-3.735 V 0 c 0,-1.277 0.112,-2.312 0.34,-3.104 0.234,-0.798 0.721,-1.42 1.48,-1.857 0.75,-0.442 1.869,-0.66 3.358,-0.66 h 10.668 c 1.86,0 3.524,0.119 5.003,0.351 1.48,0.233 2.863,0.636 4.148,1.211 1.285,0.57 2.472,1.334 3.557,2.284 1.378,1.234 2.507,2.639 3.392,4.206 0.881,1.566 1.534,3.327 1.958,5.283 0.418,1.952 0.632,4.111 0.632,6.475 0,7.169 -2.102,12.507 -6.313,16.02 m -41.267,4.247 c -1.226,0 -2.21,-0.399 -2.949,-1.196 -0.73,-0.798 -1.1,-2.011 -1.1,-3.642 V 10.079 c 0,-3.371 -0.662,-5.882 -1.986,-7.539 -1.324,-1.662 -3.582,-2.488 -6.78,-2.488 -2.317,0 -4.117,0.408 -5.402,1.22 -1.29,0.817 -2.185,1.965 -2.691,3.442 -0.506,1.481 -0.755,3.319 -0.755,5.526 v 19.378 c 0,1.612 -0.374,2.823 -1.114,3.63 -0.75,0.804 -1.752,1.208 -3.018,1.208 -1.216,0 -2.195,-0.404 -2.94,-1.208 -0.739,-0.807 -1.114,-2.018 -1.114,-3.63 V 10.667 c 0,-2.972 0.331,-5.531 0.988,-7.671 0.662,-2.142 1.703,-3.898 3.115,-5.27 1.421,-1.372 3.246,-2.383 5.49,-3.039 2.239,-0.65 4.915,-0.978 8.02,-0.978 2.609,0 4.887,0.304 6.834,0.912 1.947,0.608 3.66,1.576 5.13,2.905 1.708,1.558 2.871,3.367 3.484,5.427 0.618,2.06 0.925,4.633 0.925,7.714 v 18.951 c 0,1.631 -0.38,2.844 -1.144,3.642 -0.764,0.797 -1.756,1.196 -2.993,1.196 m -39.856,-0.672 h -19.297 c -1.159,0 -2.107,-0.166 -2.853,-0.496 -0.744,-0.332 -1.294,-0.862 -1.64,-1.585 -0.345,-0.727 -0.52,-1.664 -0.52,-2.81 V -1.429 c 0,-1.629 0.379,-2.848 1.138,-3.655 0.765,-0.803 1.752,-1.207 2.969,-1.207 1.188,0 2.171,0.399 2.93,1.197 0.765,0.798 1.149,2.018 1.149,3.665 v 12.984 h 13.477 c 1.231,0 2.16,0.27 2.784,0.807 0.628,0.536 0.939,1.263 0.939,2.179 0,0.912 -0.311,1.643 -0.925,2.188 -0.613,0.546 -1.548,0.822 -2.798,0.822 h -13.477 V 27.63 h 16.124 c 1.305,0 2.274,0.282 2.906,0.847 0.632,0.565 0.954,1.313 0.954,2.243 0,0.914 -0.322,1.655 -0.954,2.217 -0.632,0.564 -1.601,0.847 -2.906,0.847" /></g><g
         transform="translate(298.3789,562.3633)"
         id="g164"><path
           inkscape:connector-curvature="0"
           id="path166"
           style="fill:#090706;fill-opacity:1;fill-rule:nonzero;stroke:none"
           d="M 0,0 C 2.189,0 3.281,1.011 3.281,3.029 3.281,5.07 2.189,6.09 0,6.09 -2.207,6.09 -3.313,5.07 -3.313,3.029 -3.313,1.011 -2.207,0 0,0 m -52.074,-30.554 h -16.53 c 2.303,7.225 8.341,11.078 18.116,11.559 h 0.28 c 3.728,0 5.588,-2.017 5.588,-6.054 0,-3.67 -2.483,-5.505 -7.454,-5.505 m 65.29,11.009 c 0,1.056 -0.047,2.053 -0.137,2.995 -0.371,4.335 -1.553,7.385 -3.555,9.153 -2.023,1.835 -5.07,2.751 -9.144,2.751 -1.172,0 -2.084,-0.068 -2.725,-0.206 -5.407,-0.665 -8.227,-4.038 -8.455,-10.114 v -0.862 c 0.228,-3.028 0.987,-5.264 2.279,-6.711 0.161,-0.068 0.284,-0.206 0.379,-0.413 1.724,-1.765 3.874,-2.648 6.453,-2.648 0.597,0 1.191,0.045 1.793,0.137 1.748,0.482 2.621,1.743 2.621,3.787 v 0.033 c -0.024,2.064 -1.068,3.097 -3.138,3.097 h -0.209 c -2.572,0 -3.864,1.239 -3.864,3.715 0.37,2.203 1.876,3.316 4.519,3.34 h 0.071 c 3.542,0 5.597,-1.527 6.177,-4.579 0.323,-1.673 0.484,-3.439 0.484,-5.298 0,-0.781 -0.024,-1.559 -0.072,-2.34 -0.089,-4.152 -2.691,-6.433 -7.798,-6.846 h -31.78 c -2.535,0.342 -4.092,1.65 -4.676,3.921 -0.584,2.272 -0.893,3.613 -0.916,4.026 l -0.033,0.619 c -0.276,6.309 -4.752,9.464 -13.421,9.464 -4.857,-0.299 -8.792,-1.343 -11.802,-3.131 -3.821,-1.607 -7.524,-6.356 -11.114,-14.246 l -0.071,9.188 c 0,3.783 -1.054,5.675 -3.171,5.675 -2.506,0 -3.774,-1.879 -3.798,-5.642 v -9.874 h -23.812 c -2.687,0 -4.254,1.524 -4.691,4.576 0.024,0.572 0.038,1.09 0.038,1.548 0,2.523 -0.408,4.795 -1.21,6.812 -1.382,2.868 -4.8,4.463 -10.25,4.783 h -0.066 c -7.297,0 -11.275,-2.786 -11.944,-8.36 -0.162,-1.331 -0.238,-2.604 -0.238,-3.819 0,-4.086 0.873,-7.183 2.621,-9.293 1.794,-1.857 3.978,-2.786 6.556,-2.786 0.598,0 1.196,0.047 1.794,0.136 1.543,0.322 2.568,1.01 3.071,2.066 0.257,0.572 0.38,1.147 0.38,1.721 0,0.458 -0.094,0.928 -0.275,1.41 -0.418,1.009 -1.737,1.583 -3.969,1.721 -2.212,0.733 -3.313,2.499 -3.313,5.298 v 0.071 c 0.024,3.715 1.728,5.574 5.108,5.574 2.326,0 3.864,-0.931 4.624,-2.787 0.987,-2.065 1.481,-4.738 1.481,-8.018 0,-0.644 -0.01,-1.296 -0.033,-1.961 -0.252,-4.36 -1.761,-7.892 -4.52,-10.598 -1.358,-1.629 -4.153,-2.787 -8.388,-3.476 -1.723,-0.368 -2.801,-1.044 -3.238,-2.031 -0.119,-0.321 -0.175,-0.641 -0.175,-0.964 0,-0.916 0.469,-1.812 1.414,-2.683 0.897,-0.826 2.117,-1.238 3.66,-1.238 0.731,0 1.529,0.092 2.379,0.275 3.451,1.147 6.319,2.998 8.592,5.556 2.279,2.559 3.921,6.177 4.933,10.857 0.071,0.459 0.105,0.884 0.105,1.273 0,0.413 -0.034,0.779 -0.105,1.101 0.759,-1.854 2.589,-2.918 5.488,-3.194 v -0.074 h 22.844 c 2.094,0.021 3.684,1.158 4.766,3.406 1.035,-2.271 3.4,-3.406 7.102,-3.406 h 16.91 c 5.569,0 9.505,0.757 11.802,2.269 0.622,0.415 1.52,1.275 2.696,2.583 2.222,-2.831 4.407,-4.413 6.552,-4.771 v -0.081 h 31.129 c 5.059,0 8.863,1.199 11.407,3.596 2.535,2.396 3.854,6.416 3.95,12.061 0,0.596 -0.029,1.215 -0.072,1.856 m -79.541,10.461 c 2.184,0 3.281,1.02 3.281,3.062 0,2.02 -1.097,3.028 -3.281,3.028 -2.208,0 -3.313,-1.008 -3.313,-3.028 0,-2.042 1.105,-3.062 3.313,-3.062 m -80.367,16.276 c -2.417,0 -3.622,-2.053 -3.622,-6.16 v -37.644 c 0,-7.201 -3.333,-10.805 -10.008,-10.805 -6.741,0 -10.122,2.787 -10.145,8.363 -0.043,1.17 -0.072,2.143 -0.072,2.924 0,0.596 0.015,1.056 0.039,1.377 0.456,5.345 2.61,8.018 6.451,8.018 1.591,0 2.578,0.641 2.967,1.925 0.138,0.368 0.209,0.712 0.209,1.032 0,0.919 -0.475,1.815 -1.415,2.686 -0.901,0.825 -2.117,1.238 -3.66,1.238 -0.736,0 -1.543,-0.092 -2.416,-0.275 -2.393,-0.575 -4.529,-2.167 -6.419,-4.783 -1.49,-1.629 -2.321,-5.001 -2.483,-10.117 v -4.025 c 0,-5.505 1.658,-9.36 4.971,-11.563 3.314,-2.202 7.415,-3.303 12.315,-3.303 4.581,0 8.583,1.307 12.01,3.923 2.602,1.377 4.178,5.656 4.729,12.834 V 2.478 c 0,3.119 -1.149,4.692 -3.451,4.714" /></g><g
         transform="translate(310.7041,434.7544)"
         id="g168"><path
           inkscape:connector-curvature="0"
           id="path170"
           style="fill:#090706;fill-opacity:1;fill-rule:nonzero;stroke:none"
           d="m 0,0 c -0.722,0 -1.084,-0.451 -1.084,-1.344 v -1.177 c 0,-2.01 -1.212,-3.026 -3.62,-3.052 -1.157,0.033 -1.773,1.173 -1.848,3.431 v 0.798 c 0,0.903 -0.323,1.352 -0.964,1.352 -0.72,0 -1.087,-0.446 -1.091,-1.342 l 0.008,-1.178 c 0,-2.036 -1.229,-3.052 -3.697,-3.052 h -0.417 v -0.007 c -0.671,0.177 -1.056,0.534 -1.141,1.075 -0.081,0.545 -0.127,1.068 -0.132,1.566 -0.124,1.614 -1.074,2.721 -2.848,3.319 -0.783,0.256 -1.823,0.412 -3.11,0.47 1.149,1.03 2.236,1.846 3.256,2.45 0.49,0.275 0.898,0.554 1.23,0.826 1.292,0.916 1.933,1.58 1.933,1.984 0,0.113 -0.029,0.218 -0.081,0.318 -0.123,0.209 -0.332,0.313 -0.646,0.313 -0.551,0 -1.737,-0.579 -3.551,-1.732 -1.889,-1.097 -3.048,-2.071 -3.475,-2.92 -0.19,-0.371 -0.285,-0.736 -0.285,-1.092 0,-0.442 0.137,-0.897 0.409,-1.377 0.171,-0.318 0.783,-0.613 1.841,-0.879 h 0.019 c 2.236,-0.583 3.352,-1.347 3.352,-2.301 v -0.157 c -0.147,-0.979 -2.193,-1.605 -6.143,-1.87 -3.019,0.042 -4.529,1.12 -4.529,3.223 v 0.285 c 0,0.887 -0.351,1.334 -1.045,1.334 -0.693,0 -1.039,-0.471 -1.044,-1.406 l 0.01,-0.664 c 0.061,-1.819 0.588,-3.057 1.575,-3.717 1.007,-0.679 2.744,-1.025 5.222,-1.04 v -0.028 c 1.976,0.019 3.751,0.228 5.328,0.627 0.589,0.189 1.176,0.541 1.785,1.053 0.255,-0.911 0.944,-1.462 2.059,-1.652 h 0.343 v 0.011 l 0.095,0.004 c 1.746,0 3.167,0.388 4.268,1.172 0.071,0.057 0.25,0.204 0.545,0.441 0.794,-1.036 1.691,-1.563 2.687,-1.612 v -0.016 h 0.361 v 0.014 c 1.56,0.036 2.874,0.418 3.916,1.163 0.984,0.713 1.472,1.97 1.472,3.769 v 1.263 C 0.963,-0.451 0.641,0 0,0 m -2.379,-9.452 c -0.67,0 -1.006,-0.309 -1.006,-0.922 0,-0.626 0.336,-0.934 1.006,-0.934 0.67,0 1.002,0.308 1.002,0.934 0,0.613 -0.332,0.922 -1.002,0.922 m -8.18,11.237 c 0.664,0 0.998,0.308 0.998,0.92 0,0.627 -0.334,0.936 -0.998,0.936 -0.673,0 -1.01,-0.309 -1.01,-0.936 0,-0.612 0.337,-0.92 1.01,-0.92 m -24.695,4.158 h -0.019 c -0.731,0 -1.102,-0.646 -1.121,-1.932 V -5.63 c 0.019,-1.287 0.39,-1.933 1.121,-1.933 h 0.019 c 0.74,0.009 1.11,0.612 1.115,1.818 v 9.87 c -0.005,1.207 -0.375,1.809 -1.115,1.818 m -10.16,0 c -0.726,0 -1.101,-0.646 -1.12,-1.932 v -5.968 c 0.019,-1.285 0.394,-1.931 1.12,-1.931 h 0.024 c 0.736,0.009 1.106,0.617 1.116,1.818 v 6.195 c -0.01,1.207 -0.38,1.809 -1.116,1.818 z m 5.655,-0.014 h -0.019 c -0.736,-0.005 -1.106,-0.613 -1.116,-1.814 l 0.01,-6.992 c -0.038,-1.757 -0.836,-2.659 -2.384,-2.701 h -2.677 c -0.911,0 -1.368,-0.281 -1.377,-0.841 v -0.019 c 0,-0.708 0.399,-1.083 1.197,-1.125 h 3.446 c 1.267,0 2.193,0.271 2.782,0.812 0.835,0.746 1.253,1.98 1.253,3.693 l 0.01,7.06 c -0.019,1.287 -0.399,1.927 -1.125,1.927 m -6.633,0.788 h 2.545 c 0.389,0 0.579,0.138 0.579,0.413 0,0.266 -0.19,0.399 -0.579,0.399 h -0.921 c -0.527,0 -0.788,0.295 -0.788,0.878 0,0.584 0.204,0.874 0.617,0.874 0.413,0 0.617,-0.166 0.617,-0.494 0,-0.19 0.119,-0.285 0.352,-0.285 h 0.052 c 0.294,0 0.441,0.105 0.441,0.318 v 0.366 c 0,0.617 -0.512,0.925 -1.547,0.925 -1.035,0 -1.553,-0.465 -1.553,-1.395 V 8.502 c 0.024,-0.252 0.247,-0.608 0.684,-1.068 -0.869,0 -1.305,-0.104 -1.305,-0.304 0,-0.275 0.27,-0.413 0.806,-0.413 M -49.781,0 c -0.684,0 -1.031,-0.533 -1.031,-1.586 v -2.393 c 0,-1.224 -0.459,-1.837 -1.376,-1.837 h -0.024 c -0.921,0 -1.414,0.627 -1.481,1.889 v 2.412 C -53.726,-0.504 -54.04,0 -54.633,0 c -0.807,-0.039 -1.21,-0.518 -1.21,-1.439 V -4.15 c 0,-1.092 -0.418,-1.638 -1.249,-1.638 -0.988,0 -1.514,0.599 -1.576,1.795 v 2.554 c 0,0.949 -0.389,1.429 -1.168,1.439 -0.736,0 -1.102,-0.627 -1.102,-1.88 v -1.639 c 0,-1.371 -0.502,-2.059 -1.514,-2.059 h -0.555 c -1.187,0.009 -1.813,1.153 -1.88,3.436 v 0.798 c 0,0.903 -0.323,1.352 -0.968,1.352 -0.722,0 -1.083,-0.446 -1.092,-1.342 l 0.009,-1.178 c 0,-2.036 -1.234,-3.052 -3.698,-3.052 h -0.357 c -1.115,0.077 -1.711,1.21 -1.775,3.422 v 6.727 c 0,0.907 -0.322,1.358 -0.968,1.358 -0.722,0 -1.082,-0.451 -1.092,-1.343 l 0.01,-7.112 c 0,-2.036 -0.95,-3.052 -2.859,-3.052 h -0.659 v -0.017 c -0.045,-0.003 -0.089,-0.007 -0.138,-0.007 -0.797,0 -1.196,0.741 -1.196,2.217 v 3.969 c -0.01,1.063 -0.309,1.599 -0.902,1.605 h -0.024 c -0.726,0 -1.106,-0.575 -1.125,-1.719 v -0.641 c -0.651,0.118 -1.158,0.19 -1.533,0.218 h -0.024 c -2.218,0 -3.428,-0.85 -3.632,-2.549 -0.052,-0.408 -0.071,-0.797 -0.071,-1.168 0,-0.137 0,-0.275 0.009,-0.408 0.057,-1.049 0.313,-1.861 0.788,-2.426 0.546,-0.565 1.211,-0.849 1.994,-0.849 0.181,0 0.366,0.013 0.546,0.042 0.537,0.147 0.821,0.503 0.873,1.068 -0.057,0.693 -0.422,1.04 -1.096,1.04 -0.598,0.199 -0.94,0.635 -1.016,1.314 -0.009,0.096 -0.009,0.2 -0.009,0.305 v 0.019 c 0.009,1.134 0.521,1.704 1.557,1.704 1.035,0 1.552,-0.57 1.552,-1.704 V -4.61 c 0.195,-1.97 1.315,-2.953 3.361,-2.953 h 0.442 v 0.015 h 0.37 c 1.149,0 2.269,0.388 3.371,1.172 0.066,0.057 0.251,0.204 0.546,0.441 0.779,-1.017 1.66,-1.539 2.634,-1.605 v -0.023 l 0.137,0.004 c 0.012,0 0.023,-0.004 0.034,-0.004 h 0.134 v 0.01 l 0.128,0.005 c 1.742,0 3.166,0.388 4.267,1.172 0.067,0.057 0.252,0.204 0.542,0.441 0.795,-1.032 1.689,-1.558 2.681,-1.61 v -0.018 h 0.4 c 0.887,0 1.751,0.333 2.577,0.987 0.779,-0.873 1.799,-1.31 3.058,-1.31 0.133,0 0.256,0.004 0.365,0.01 0.935,0.175 1.614,0.787 2.027,1.837 0.679,-1.021 1.595,-1.562 2.754,-1.628 h 0.475 c 0.834,0.057 1.485,0.46 1.941,1.21 0.403,0.694 0.607,1.652 0.607,2.887 v 2.004 C -48.936,-0.523 -49.221,0 -49.781,0 m -19.227,1.229 h 2.545 c 0.38,0 0.579,0.133 0.579,0.408 0,0.266 -0.199,0.399 -0.579,0.399 h -0.926 c -0.527,0 -0.788,0.294 -0.788,0.883 0,0.579 0.204,0.87 0.622,0.87 0.408,0 0.617,-0.162 0.617,-0.495 0,-0.185 0.114,-0.28 0.346,-0.28 h 0.053 c 0.294,0 0.441,0.105 0.441,0.314 v 0.365 c 0,0.617 -0.517,0.926 -1.543,0.926 -1.034,0 -1.557,-0.465 -1.557,-1.396 V 3.014 c 0.019,-0.256 0.247,-0.612 0.684,-1.073 -0.869,0 -1.301,-0.099 -1.301,-0.304 0,-0.275 0.266,-0.408 0.807,-0.408 m -13.739,1.187 c 0.665,0 0.997,0.303 0.997,0.92 0,0.623 -0.332,0.935 -0.997,0.935 -0.674,0 -1.011,-0.312 -1.011,-0.935 0,-0.617 0.337,-0.92 1.011,-0.92 m -2.905,0.01 c 0.664,0 0.997,0.308 0.997,0.92 0,0.627 -0.333,0.935 -0.997,0.935 -0.67,0 -1.007,-0.308 -1.007,-0.935 0,-0.612 0.337,-0.92 1.007,-0.92" /></g><g
         transform="translate(205.4263,429.3667)"
         id="g172"><path
           inkscape:connector-curvature="0"
           id="path174"
           style="fill:#090706;fill-opacity:1;fill-rule:nonzero;stroke:none"
           d="m 0,0 c -0.152,0.322 -0.385,0.703 -0.693,1.139 l -4.368,6.257 3.789,3.589 c 0.469,0.452 0.702,0.903 0.702,1.358 0,0.375 -0.133,0.698 -0.413,0.959 -0.275,0.261 -0.641,0.394 -1.087,0.394 -0.342,0 -0.618,-0.076 -0.826,-0.224 -0.204,-0.146 -0.456,-0.369 -0.75,-0.678 L -9.771,6.409 v 5.397 c 0,0.637 -0.142,1.111 -0.436,1.42 -0.29,0.313 -0.669,0.47 -1.14,0.47 -0.474,0 -0.854,-0.157 -1.13,-0.474 -0.275,-0.314 -0.418,-0.785 -0.418,-1.416 V 0.361 c 0,-0.489 0.015,-0.864 0.039,-1.126 0.019,-0.256 0.076,-0.485 0.175,-0.678 0.133,-0.243 0.324,-0.428 0.566,-0.57 0.246,-0.137 0.503,-0.209 0.768,-0.209 0.466,0 0.841,0.156 1.135,0.465 0.295,0.314 0.441,0.793 0.441,1.434 v 3.18 l 2.555,2.451 3.684,-5.673 c 0.152,-0.252 0.318,-0.533 0.508,-0.842 0.185,-0.303 0.422,-0.55 0.693,-0.734 0.27,-0.191 0.626,-0.281 1.059,-0.281 0.464,0 0.83,0.128 1.101,0.38 0.266,0.252 0.403,0.546 0.403,0.893 C 0.232,-0.646 0.151,-0.328 0,0 m -17.774,13.696 c -0.437,0 -0.779,-0.148 -1.035,-0.446 -0.257,-0.299 -0.385,-0.745 -0.385,-1.339 V 2.753 l -5.995,9.073 c -0.171,0.265 -0.333,0.521 -0.495,0.769 -0.156,0.242 -0.313,0.441 -0.46,0.598 -0.147,0.152 -0.328,0.275 -0.527,0.365 -0.199,0.09 -0.436,0.138 -0.717,0.138 -0.356,0 -0.688,-0.099 -1.002,-0.299 -0.303,-0.199 -0.526,-0.456 -0.659,-0.774 -0.109,-0.284 -0.167,-0.679 -0.167,-1.186 V -0.437 c 0,-0.579 0.133,-1.025 0.4,-1.329 0.265,-0.304 0.617,-0.456 1.063,-0.456 0.427,0 0.774,0.152 1.044,0.451 0.275,0.299 0.413,0.746 0.413,1.334 v 9.02 l 5.853,-8.968 c 0.167,-0.246 0.333,-0.484 0.504,-0.717 0.166,-0.237 0.352,-0.441 0.546,-0.617 0.194,-0.176 0.403,-0.304 0.631,-0.384 0.223,-0.081 0.475,-0.119 0.755,-0.119 1.12,0 1.681,0.674 1.681,2.027 v 12.106 c 0,0.594 -0.129,1.04 -0.39,1.339 -0.261,0.298 -0.612,0.446 -1.058,0.446 m -23.281,-9.637 2.279,6.352 2.32,-6.352 z m 5.008,6.727 c -0.185,0.498 -0.346,0.897 -0.47,1.192 -0.118,0.298 -0.271,0.578 -0.446,0.835 -0.18,0.261 -0.418,0.47 -0.707,0.636 -0.29,0.166 -0.651,0.247 -1.088,0.247 -0.427,0 -0.787,-0.081 -1.073,-0.247 -0.294,-0.166 -0.531,-0.38 -0.707,-0.645 -0.175,-0.266 -0.347,-0.598 -0.503,-1.002 -0.157,-0.404 -0.294,-0.75 -0.403,-1.035 l -3.941,-9.998 c -0.161,-0.398 -0.275,-0.707 -0.351,-0.935 -0.067,-0.224 -0.105,-0.437 -0.105,-0.65 0,-0.362 0.153,-0.689 0.456,-0.974 0.299,-0.29 0.646,-0.432 1.04,-0.432 0.46,0 0.792,0.133 0.996,0.404 0.204,0.27 0.452,0.787 0.737,1.557 l 0.735,1.974 h 6.262 l 0.736,-1.932 c 0.099,-0.238 0.213,-0.512 0.351,-0.821 0.138,-0.313 0.261,-0.546 0.385,-0.692 0.119,-0.153 0.266,-0.271 0.436,-0.357 0.181,-0.09 0.39,-0.133 0.637,-0.133 0.417,0 0.778,0.148 1.072,0.447 0.3,0.298 0.447,0.621 0.447,0.982 0,0.342 -0.157,0.893 -0.47,1.647 z M -52.943,0.379 h -3.351 v 4.496 h 3.247 c 1.087,0 1.904,-0.176 2.45,-0.527 0.546,-0.346 0.816,-0.911 0.816,-1.69 0,-1.519 -1.053,-2.279 -3.162,-2.279 m -3.351,10.71 h 2.535 c 1.134,0 1.974,-0.127 2.535,-0.379 0.551,-0.257 0.826,-0.773 0.826,-1.552 0,-0.362 -0.086,-0.694 -0.261,-0.983 -0.223,-0.413 -0.546,-0.693 -0.973,-0.84 -0.423,-0.148 -1.026,-0.224 -1.805,-0.224 h -2.857 z m 6.646,-4.898 c 1.538,0.711 2.307,1.836 2.307,3.379 0,0.447 -0.076,0.874 -0.218,1.273 -0.152,0.403 -0.361,0.774 -0.646,1.106 -0.275,0.332 -0.598,0.607 -0.963,0.822 -0.428,0.26 -0.912,0.436 -1.449,0.525 -0.541,0.092 -1.176,0.139 -1.913,0.139 h -4.989 c -0.665,0 -1.149,-0.152 -1.443,-0.447 -0.304,-0.299 -0.446,-0.787 -0.446,-1.467 V -0.047 c 0,-0.665 0.142,-1.15 0.431,-1.458 0.29,-0.304 0.774,-0.456 1.458,-0.456 h 4.705 c 0.812,0 1.523,0.043 2.131,0.124 0.612,0.08 1.149,0.218 1.619,0.413 0.75,0.327 1.343,0.84 1.79,1.528 0.437,0.689 0.66,1.462 0.66,2.326 0,1.861 -1.011,3.114 -3.034,3.761 M -62.983,4.895 h -3.318 c -0.523,0 -0.907,-0.114 -1.164,-0.352 -0.256,-0.232 -0.384,-0.536 -0.384,-0.916 0,-0.371 0.133,-0.674 0.398,-0.907 0.257,-0.238 0.646,-0.356 1.15,-0.356 h 3.318 c 0.526,0 0.916,0.118 1.163,0.356 0.256,0.233 0.38,0.536 0.38,0.907 0,0.38 -0.129,0.684 -0.38,0.916 -0.257,0.238 -0.646,0.352 -1.163,0.352 M -72.696,3.418 C -72.9,2.739 -73.224,2.15 -73.66,1.652 c -1.5,1.063 -2.564,1.595 -3.2,1.595 -0.214,0 -0.408,-0.081 -0.579,-0.243 -0.176,-0.16 -0.266,-0.346 -0.266,-0.555 0,-0.242 0.095,-0.431 0.276,-0.564 0.18,-0.133 0.522,-0.323 1.015,-0.571 0.494,-0.242 0.902,-0.488 1.235,-0.735 -0.551,-0.214 -1.083,-0.323 -1.6,-0.323 -1.258,0 -2.303,0.48 -3.129,1.433 -0.826,0.955 -1.243,2.318 -1.243,4.088 0,0.869 0.113,1.652 0.332,2.35 0.218,0.693 0.523,1.268 0.902,1.714 0.384,0.451 0.84,0.787 1.367,1.026 0.532,0.232 1.106,0.351 1.728,0.351 0.874,0 1.652,-0.215 2.326,-0.636 0.68,-0.423 1.197,-1.049 1.562,-1.875 0.366,-0.827 0.546,-1.799 0.546,-2.93 0,-0.897 -0.104,-1.68 -0.308,-2.359 m 2.976,-4.363 c -0.541,0.289 -1.035,0.589 -1.49,0.898 1.324,1.428 1.984,3.36 1.984,5.805 0,1.609 -0.295,3.011 -0.883,4.206 -0.588,1.192 -1.453,2.113 -2.602,2.758 -1.139,0.651 -2.516,0.974 -4.111,0.974 -1.178,0 -2.226,-0.185 -3.152,-0.55 -0.921,-0.371 -1.709,-0.898 -2.355,-1.592 -0.641,-0.692 -1.134,-1.533 -1.471,-2.52 -0.342,-0.988 -0.513,-2.075 -0.513,-3.257 0,-1.162 0.162,-2.236 0.494,-3.223 0.322,-0.988 0.807,-1.837 1.452,-2.554 0.646,-0.717 1.444,-1.268 2.388,-1.648 0.95,-0.383 2.022,-0.574 3.224,-0.574 1.476,0 2.725,0.257 3.74,0.779 0.542,-0.394 1.045,-0.736 1.505,-1.031 0.461,-0.294 0.86,-0.518 1.201,-0.674 0.338,-0.152 0.627,-0.227 0.865,-0.227 0.294,0 0.541,0.109 0.75,0.332 0.209,0.227 0.313,0.451 0.313,0.674 0,0.313 -0.09,0.56 -0.266,0.731 -0.175,0.171 -0.532,0.398 -1.073,0.693" /></g></g></g></svg>