<?xml version="1.0" encoding="UTF-8" standalone="no"?>
<!-- Created with Inkscape (http://www.inkscape.org/) -->

<svg
   xmlns:dc="http://purl.org/dc/elements/1.1/"
   xmlns:cc="http://creativecommons.org/ns#"
   xmlns:rdf="http://www.w3.org/1999/02/22-rdf-syntax-ns#"
   xmlns:svg="http://www.w3.org/2000/svg"
   xmlns="http://www.w3.org/2000/svg"
   xmlns:sodipodi="http://sodipodi.sourceforge.net/DTD/sodipodi-0.dtd"
   xmlns:inkscape="http://www.inkscape.org/namespaces/inkscape"
   version="1.1"
   id="svg2"
   xml:space="preserve"
   width="250"
   height="300"
   viewBox="0 0 250 299.99999"
   sodipodi:docname="logo-avatar.svg"
   inkscape:version="0.92+devel unknown"><metadata
     id="metadata8"><rdf:RDF><cc:Work
         rdf:about=""><dc:format>image/svg+xml</dc:format><dc:type
           rdf:resource="http://purl.org/dc/dcmitype/StillImage" /><dc:title></dc:title></cc:Work></rdf:RDF></metadata><defs
     id="defs6"><clipPath
       clipPathUnits="userSpaceOnUse"
       id="clipPath18"><path
         d="M 0,841.89 H 595.28 V 0 H 0 Z"
         id="path16"
         inkscape:connector-curvature="0" /></clipPath><clipPath
       clipPathUnits="userSpaceOnUse"
       id="clipPath118"><path
         d="m 409.551,484.402 c 0,-12.649 10.241,-22.904 22.872,-22.904 v 0 c 6.274,0 15.14,4.328 19.267,8.43 v 0 c 1.376,1.365 -7.047,1.105 -12.801,1.105 v 0 c -12.63,0 -22.872,10.255 -22.872,22.904 v 0 c 0,0.913 -0.296,1.315 -0.76,1.315 v 0 c -1.709,10e-4 -5.706,-5.433 -5.706,-10.85"
         id="path116"
         inkscape:connector-curvature="0" /></clipPath><linearGradient
       x1="0"
       y1="0"
       x2="1"
       y2="0"
       gradientUnits="userSpaceOnUse"
       gradientTransform="matrix(42.288086,0,0,-42.288086,409.55176,478.375)"
       spreadMethod="pad"
       id="linearGradient128"><stop
         style="stop-opacity:1;stop-color:#f7f7f7"
         offset="0"
         id="stop124" /><stop
         style="stop-opacity:1;stop-color:#ffffff"
         offset="1"
         id="stop126" /></linearGradient><clipPath
       clipPathUnits="userSpaceOnUse"
       id="clipPath138"><path
         d="m 414.45,498.741 c -0.407,-0.282 -1.195,-4.8 -1.195,-4.8 v 0 c 2.055,0.616 2.732,-0.182 2.732,-0.182 v 0 c 0.048,4.179 0.467,4.634 0.322,4.86 v 0 c -0.092,0.143 -0.651,0.268 -1.152,0.268 v 0 c -0.289,0 -0.558,-0.042 -0.707,-0.146"
         id="path136"
         inkscape:connector-curvature="0" /></clipPath><linearGradient
       x1="0"
       y1="0"
       x2="1"
       y2="0"
       gradientUnits="userSpaceOnUse"
       gradientTransform="matrix(2.7712708,-0.1838226,-0.1838226,-2.7712708,413.42285,496.46973)"
       spreadMethod="pad"
       id="linearGradient148"><stop
         style="stop-opacity:1;stop-color:#f7f7f7"
         offset="0"
         id="stop144" /><stop
         style="stop-opacity:1;stop-color:#ffffff"
         offset="1"
         id="stop146" /></linearGradient><clipPath
       clipPathUnits="userSpaceOnUse"
       id="clipPath158"><path
         d="M 0,841.89 H 595.28 V 0 H 0 Z"
         id="path156"
         inkscape:connector-curvature="0" /></clipPath><clipPath
       clipPathUnits="userSpaceOnUse"
       id="clipPath274"><path
         d="m 409.262,225.403 c 0,-12.65 10.24,-22.904 22.871,-22.904 v 0 c 6.274,0 15.139,4.326 19.267,8.429 v 0 c 1.376,1.366 -7.047,1.105 -12.8,1.105 v 0 c -12.631,0 -22.874,10.255 -22.874,22.904 v 0 c 0,0.913 -0.295,1.315 -0.76,1.315 v 0 c -1.709,0 -5.704,-5.434 -5.704,-10.849"
         id="path272"
         inkscape:connector-curvature="0" /></clipPath><linearGradient
       x1="0"
       y1="0"
       x2="1"
       y2="0"
       gradientUnits="userSpaceOnUse"
       gradientTransform="matrix(42.288086,0,0,-42.288086,409.26172,219.37598)"
       spreadMethod="pad"
       id="linearGradient284"><stop
         style="stop-opacity:1;stop-color:#f7f7f7"
         offset="0"
         id="stop280" /><stop
         style="stop-opacity:1;stop-color:#ffffff"
         offset="1"
         id="stop282" /></linearGradient><clipPath
       clipPathUnits="userSpaceOnUse"
       id="clipPath294"><path
         d="m 414.16,239.741 c -0.407,-0.282 -1.195,-4.801 -1.195,-4.801 v 0 c 2.056,0.618 2.732,-0.181 2.732,-0.181 v 0 c 0.048,4.178 0.467,4.635 0.322,4.859 v 0 c -0.092,0.143 -0.652,0.269 -1.153,0.269 v 0 c -0.289,0 -0.557,-0.042 -0.706,-0.146"
         id="path292"
         inkscape:connector-curvature="0" /></clipPath><linearGradient
       x1="0"
       y1="0"
       x2="1"
       y2="0"
       gradientUnits="userSpaceOnUse"
       gradientTransform="matrix(2.7712708,-0.1838226,-0.1838226,-2.7712708,413.13281,237.46875)"
       spreadMethod="pad"
       id="linearGradient304"><stop
         style="stop-opacity:1;stop-color:#f7f7f7"
         offset="0"
         id="stop300" /><stop
         style="stop-opacity:1;stop-color:#ffffff"
         offset="1"
         id="stop302" /></linearGradient><clipPath
       clipPathUnits="userSpaceOnUse"
       id="clipPath314"><path
         d="M 0,841.89 H 595.28 V 0 H 0 Z"
         id="path312"
         inkscape:connector-curvature="0" /></clipPath></defs><sodipodi:namedview
     pagecolor="#fbffff"
     bordercolor="#666666"
     inkscape:document-rotation="0"
     borderopacity="1"
     objecttolerance="10"
     gridtolerance="10"
     guidetolerance="10"
     inkscape:pageopacity="0"
     inkscape:pageshadow="2"
     inkscape:window-width="1366"
     inkscape:window-height="704"
     id="namedview4"
     showgrid="false"
     inkscape:zoom="0.47571535"
     inkscape:cx="144.60164"
     inkscape:cy="309.00832"
     inkscape:window-x="0"
     inkscape:window-y="27"
     inkscape:window-maximized="1"
     inkscape:current-layer="g10" /><g
     id="g10"
     inkscape:groupmode="layer"
     inkscape:label="Fudul logo1"
     transform="matrix(1.3333333,0,0,-1.3333333,0,299.99999)"><g
       id="g12"
       transform="translate(-331.1472,-404.37247)"><g
         id="g14"
         clip-path="url(#clipPath18)"><g
           id="g20"
           transform="translate(508.335,538.1611)"><path
             d="m 0,0 c 0,-18.062 -9.109,-32.711 -20.347,-32.711 -11.24,0 -20.348,14.649 -20.348,32.711 0,18.065 9.108,32.709 20.348,32.709 C -9.109,32.709 0,18.065 0,0"
             style="fill:#5e3711;fill-opacity:1;fill-rule:nonzero;stroke:none"
             id="path22"
             inkscape:connector-curvature="0" /></g><g
           id="g24"
           transform="translate(382.5156,538.1616)"><path
             d="m 0,0 c 0,-18.062 -9.111,-32.711 -20.349,-32.711 -11.241,0 -20.352,14.649 -20.352,32.711 0,18.065 9.111,32.709 20.352,32.709 C -9.111,32.709 0,18.065 0,0"
             style="fill:#5e3711;fill-opacity:1;fill-rule:nonzero;stroke:none"
             id="path26"
             inkscape:connector-curvature="0" /></g><g
           id="g28"
           transform="translate(375.7363,538.1616)"><path
             d="m 0,0 c 0,-12.044 -6.076,-21.813 -13.569,-21.813 -7.495,0 -13.573,9.769 -13.573,21.813 0,12.046 6.078,21.813 13.573,21.813 C -6.076,21.813 0,12.046 0,0"
             style="fill:#e5d3bf;fill-opacity:1;fill-rule:nonzero;stroke:none"
             id="path30"
             inkscape:connector-curvature="0" /></g><g
           id="g32"
           transform="translate(502.043,538.1611)"><path
             d="m 0,0 c 0,-12.044 -6.077,-21.813 -13.572,-21.813 -7.493,0 -13.569,9.769 -13.569,21.813 0,12.046 6.076,21.813 13.569,21.813 C -6.077,21.813 0,12.046 0,0"
             style="fill:#e5d3bf;fill-opacity:1;fill-rule:nonzero;stroke:none"
             id="path34"
             inkscape:connector-curvature="0" /></g><g
           id="g36"
           transform="translate(488.1104,527.8154)"><path
             d="m 0,0 c 0,-33.535 -28.031,-60.722 -62.607,-60.722 -34.577,0 -62.606,27.187 -62.606,60.722 0,33.538 28.029,60.726 62.606,60.726 C -28.031,60.726 0,33.538 0,0"
             style="fill:#5e3711;fill-opacity:1;fill-rule:nonzero;stroke:none"
             id="path38"
             inkscape:connector-curvature="0" /></g><g
           id="g40"
           transform="translate(441.7148,525.0771)"><path
             d="m 0,0 c 0,-19.768 -15.599,-35.795 -34.844,-35.795 -19.238,0 -34.84,16.027 -34.84,35.795 0,19.767 15.602,35.794 34.84,35.794 C -15.599,35.794 0,19.767 0,0"
             style="fill:#e5d3bf;fill-opacity:1;fill-rule:nonzero;stroke:none"
             id="path42"
             inkscape:connector-curvature="0" /></g><g
           id="g44"
           transform="translate(479.6484,525.0771)"><path
             d="m 0,0 c 0,-19.768 -15.998,-35.795 -35.728,-35.795 -19.729,0 -35.724,16.027 -35.724,35.795 0,19.767 15.995,35.794 35.724,35.794 C -15.998,35.794 0,19.767 0,0"
             style="fill:#e5d3bf;fill-opacity:1;fill-rule:nonzero;stroke:none"
             id="path46"
             inkscape:connector-curvature="0" /></g><g
           id="g48"
           transform="translate(467.3105,511.4624)"><path
             d="m 0,0 c 0,-9.662 -7.83,-17.494 -17.494,-17.494 h -2.944 c -9.663,0 -17.493,7.832 -17.493,17.494 v 6.922 c 0,9.661 7.83,17.494 17.493,17.494 h 2.944 C -7.83,24.416 0,16.583 0,6.922 Z m -2.559,25.17 h -14.88 -0.499 -2.552 c -10.009,0 -18.124,-8.114 -18.124,-18.122 v -7.174 c 0,-10.008 8.115,-18.122 18.124,-18.122 h 3.051 c 10.006,0 18.12,8.114 18.12,18.122 v 7.174 c 0,0.751 -0.062,1.487 -0.15,2.213 0.01,-0.058 0.03,-0.115 0.037,-0.175 L 0.73,21.905 c 0,0.479 2.776,0.967 2.776,2.144 0,1.121 -4.229,1.121 -6.065,1.121"
             style="fill:#090706;fill-opacity:1;fill-rule:nonzero;stroke:none"
             id="path50"
             inkscape:connector-curvature="0" /></g><g
           id="g52"
           transform="translate(381.6133,518.3848)"><path
             d="m 0,0 c 0,9.661 7.832,17.494 17.495,17.494 h 2.943 C 30.102,17.494 37.932,9.661 37.932,0 v -6.922 c 0,-9.662 -7.83,-17.495 -17.494,-17.495 H 17.495 C 7.832,-24.417 0,-16.584 0,-6.922 Z m -3.505,17.127 c 0,-1.177 2.776,-1.665 2.776,-2.144 L -0.567,2.164 c 0.006,0.06 0.025,0.117 0.034,0.175 C -0.622,1.613 -0.68,0.876 -0.68,0.125 v -7.173 c 0,-10.009 8.11,-18.122 18.121,-18.122 h 3.052 c 10.007,0 18.122,8.113 18.122,18.122 v 7.173 c 0,10.008 -8.115,18.123 -18.122,18.123 H 17.939 17.441 2.557 c -1.834,0 -6.062,0 -6.062,-1.121"
             style="fill:#090706;fill-opacity:1;fill-rule:nonzero;stroke:none"
             id="path54"
             inkscape:connector-curvature="0" /></g><g
           id="g56"
           transform="translate(410,534.7065)"><path
             d="M 0,0 C 0,0 17.455,3.55 28.921,0"
             style="fill:none;stroke:#090706;stroke-width:1;stroke-linecap:round;stroke-linejoin:miter;stroke-miterlimit:10;stroke-dasharray:none;stroke-opacity:1"
             id="path58"
             inkscape:connector-curvature="0" /></g><g
           id="g60"
           transform="translate(508.96,431.5771)"><path
             d="m 0,0 c 0,-6.306 -6.174,-11.418 -13.789,-11.418 h -140.007 c -7.615,0 -13.788,5.112 -13.788,11.418 l -7.955,81.243 c 0,6.307 6.174,11.419 13.789,11.419 H -5.834 c 7.615,0 13.787,-5.112 13.787,-11.419 z"
             style="fill:#3f3f3f;fill-opacity:1;fill-rule:nonzero;stroke:none"
             id="path62"
             inkscape:connector-curvature="0" /></g><g
           id="g64"
           transform="translate(509.6445,416.7295)"><path
             d="m 0,0 c 0,-2.344 -2.124,-4.242 -4.745,-4.242 h -161.276 c -2.621,0 -4.746,1.898 -4.746,4.242 0,2.342 2.125,4.242 4.746,4.242 H -4.745 C -2.124,4.242 0,2.342 0,0"
             style="fill:#3f3f3f;fill-opacity:1;fill-rule:nonzero;stroke:none"
             id="path66"
             inkscape:connector-curvature="0" /></g><g
           id="g68"
           transform="translate(466.7168,570.9624)"><path
             d="m 0,0 c -0.118,0.009 -0.23,0.03 -0.354,0.03 h -81.757 c -0.096,0 -0.188,-0.017 -0.282,-0.024 11.784,-6.464 25.955,-10.238 41.204,-10.238 15.244,0 29.408,3.772 41.189,10.232"
             style="fill:#090706;fill-opacity:1;fill-rule:nonzero;stroke:none"
             id="path70"
             inkscape:connector-curvature="0" /></g><g
           id="g72"
           transform="translate(467.6396,573.2178)"><path
             d="m 0,0 c 0,-1.692 -1.594,-3.063 -3.563,-3.063 h -77.272 c -1.968,0 -3.562,1.371 -3.562,3.063 l 0.003,40.474 c 0,1.691 1.595,0.797 3.561,0.797 l 77.27,-7.956 C -1.594,33.315 0,31.943 0,30.253 Z"
             style="fill:#090706;fill-opacity:1;fill-rule:nonzero;stroke:none"
             id="path74"
             inkscape:connector-curvature="0" /></g><g
           id="g76"
           transform="translate(497.249,600.2578)"><path
             d="m 0,0 c -0.2,-1.451 -1.536,-2.467 -2.986,-2.27 l -138.199,18.828 c -1.451,0.198 -2.466,1.534 -2.271,2.985 0.199,1.452 1.535,2.468 2.985,2.27 L -2.271,2.985 C -0.819,2.789 0.196,1.452 0,0"
             style="fill:#090706;fill-opacity:1;fill-rule:nonzero;stroke:none"
             id="path78"
             inkscape:connector-curvature="0" /></g><g
           id="g80"
           transform="translate(494.4395,582.8877)"><path
             d="m 0,0 c 0,-0.121 -0.099,-0.221 -0.223,-0.221 -0.12,0 -0.219,0.1 -0.219,0.221 v 15.734 c 0,0.121 0.099,0.22 0.219,0.22 0.124,0 0.223,-0.099 0.223,-0.22 z"
             style="fill:#090706;fill-opacity:1;fill-rule:nonzero;stroke:none"
             id="path82"
             inkscape:connector-curvature="0" /></g><g
           id="g84"
           transform="translate(496.1064,584.0708)"><path
             d="m 0,0 c 0,-0.372 -0.305,-0.673 -0.678,-0.673 h -2.424 c -0.373,0 -0.673,0.301 -0.673,0.673 0,0.372 0.3,0.674 0.673,0.674 h 2.424 C -0.305,0.674 0,0.372 0,0"
             style="fill:#090706;fill-opacity:1;fill-rule:nonzero;stroke:none"
             id="path86"
             inkscape:connector-curvature="0" /></g><g
           id="g88"
           transform="translate(493.0195,573.2705)"><path
             d="m 0,0 c 0,-0.186 -0.153,-0.336 -0.346,-0.336 -0.189,0 -0.342,0.15 -0.342,0.336 v 10.464 c 0,0.186 0.153,0.336 0.342,0.336 C -0.153,10.8 0,10.65 0,10.464 Z"
             style="fill:#090706;fill-opacity:1;fill-rule:nonzero;stroke:none"
             id="path90"
             inkscape:connector-curvature="0" /></g><g
           id="g92"
           transform="translate(493.707,572.6035)"><path
             d="m 0,0 c 0,-0.188 -0.154,-0.343 -0.346,-0.343 -0.187,0 -0.342,0.155 -0.342,0.343 v 10.705 c 0,0.188 0.155,0.343 0.342,0.343 0.192,0 0.346,-0.155 0.346,-0.343 z"
             style="fill:#090706;fill-opacity:1;fill-rule:nonzero;stroke:none"
             id="path94"
             inkscape:connector-curvature="0" /></g><g
           id="g96"
           transform="translate(494.2627,573.0264)"><path
             d="m 0,0 c 0,-0.185 -0.155,-0.334 -0.345,-0.334 -0.188,0 -0.345,0.149 -0.345,0.334 v 10.468 c 0,0.187 0.157,0.337 0.345,0.337 0.19,0 0.345,-0.15 0.345,-0.337 z"
             style="fill:#090706;fill-opacity:1;fill-rule:nonzero;stroke:none"
             id="path98"
             inkscape:connector-curvature="0" /></g><g
           id="g100"
           transform="translate(494.9521,573.373)"><path
             d="m 0,0 c 0,-0.184 -0.166,-0.332 -0.367,-0.332 -0.202,0 -0.368,0.148 -0.368,0.332 v 10.366 c 0,0.183 0.166,0.332 0.368,0.332 0.201,0 0.367,-0.149 0.367,-0.332 z"
             style="fill:#090706;fill-opacity:1;fill-rule:nonzero;stroke:none"
             id="path102"
             inkscape:connector-curvature="0" /></g><g
           id="g104"
           transform="translate(495.6406,572.7471)"><path
             d="m 0,0 c 0,-0.189 -0.155,-0.344 -0.347,-0.344 -0.188,0 -0.341,0.155 -0.341,0.344 v 10.74 c 0,0.19 0.153,0.344 0.341,0.344 C -0.155,11.084 0,10.93 0,10.74 Z"
             style="fill:#090706;fill-opacity:1;fill-rule:nonzero;stroke:none"
             id="path106"
             inkscape:connector-curvature="0" /></g><g
           id="g108"
           transform="translate(496.1064,573.2788)"><path
             d="m 0,0 c 0,-0.189 -0.157,-0.344 -0.346,-0.344 -0.189,0 -0.346,0.155 -0.346,0.344 v 10.739 c 0,0.19 0.157,0.344 0.346,0.344 0.189,0 0.346,-0.154 0.346,-0.344 z"
             style="fill:#090706;fill-opacity:1;fill-rule:nonzero;stroke:none"
             id="path110"
             inkscape:connector-curvature="0" /></g></g></g><g
       id="g112"
       transform="translate(-331.1472,-404.37247)"><g
         id="g114"
         clip-path="url(#clipPath118)"><g
           id="g120"><g
             id="g122"><path
               d="m 409.551,484.402 c 0,-12.649 10.241,-22.904 22.872,-22.904 v 0 c 6.274,0 15.14,4.328 19.267,8.43 v 0 c 1.376,1.365 -7.047,1.105 -12.801,1.105 v 0 c -12.63,0 -22.872,10.255 -22.872,22.904 v 0 c 0,0.913 -0.296,1.315 -0.76,1.315 v 0 c -1.709,10e-4 -5.706,-5.433 -5.706,-10.85"
               style="fill:url(#linearGradient128);stroke:none"
               id="path130"
               inkscape:connector-curvature="0" /></g></g></g></g><g
       id="g132"
       transform="translate(-331.1472,-404.37247)"><g
         id="g134"
         clip-path="url(#clipPath138)"><g
           id="g140"><g
             id="g142"><path
               d="m 414.45,498.741 c -0.407,-0.282 -1.195,-4.8 -1.195,-4.8 v 0 c 2.055,0.616 2.732,-0.182 2.732,-0.182 v 0 c 0.048,4.179 0.467,4.634 0.322,4.86 v 0 c -0.092,0.143 -0.651,0.268 -1.152,0.268 v 0 c -0.289,0 -0.558,-0.042 -0.707,-0.146"
               style="fill:url(#linearGradient148);stroke:none"
               id="path150"
               inkscape:connector-curvature="0" /></g></g></g></g></g></svg>